<svg width="63" height="63" viewBox="0 0 63 63" fill="none" xmlns="http://www.w3.org/2000/svg">
<path d="M59.625 0.25H3.375C1.5 0.25 0.25 1.5 0.25 3.375V59.625C0.25 61.5 1.5 62.75 3.375 62.75H59.625C61.5 62.75 62.75 61.5 62.75 59.625V3.375C62.75 1.5 61.5 0.25 59.625 0.25ZM49.3125 23.0625L28.0625 44.3125C26.8125 45.5625 24.9375 45.5625 23.6875 44.3125L13.6875 34.3125C12.4375 33.0625 12.4375 31.1875 13.6875 29.9375C14.9375 28.6875 16.8125 28.6875 18.0625 29.9375L25.875 37.75L44.9375 18.6875C46.1875 17.4375 48.0625 17.4375 49.3125 18.6875C50.5625 19.9375 50.5625 21.8125 49.3125 23.0625Z" fill="#F55757"/>
</svg>
