<svg width="63" height="63" viewBox="0 0 63 63" fill="none" xmlns="http://www.w3.org/2000/svg">
<path d="M44 15.875H12.75C10.875 15.875 9.625 17.125 9.625 19V26.8125H33.0625C34.9375 26.8125 36.1875 28.0625 36.1875 29.9375V53.375H44C45.875 53.375 47.125 52.125 47.125 50.25V19C47.125 17.125 45.875 15.875 44 15.875ZM28.375 31.5H3.375C1.5 31.5 0.25 32.75 0.25 34.625V59.625C0.25 61.5 1.5 62.75 3.375 62.75H28.375C30.25 62.75 31.5 61.5 31.5 59.625V34.625C31.5 32.75 30.25 31.5 28.375 31.5ZM59.625 0.25H22.125C20.25 0.25 19 1.5 19 3.375V11.1875H48.6875C50.5625 11.1875 51.8125 12.4375 51.8125 14.3125V44H59.625C61.5 44 62.75 42.75 62.75 40.875V3.375C62.75 1.5 61.5 0.25 59.625 0.25Z" fill="#F55757"/>
</svg>
