<svg width="63" height="64" viewBox="0 0 63 64" fill="none" xmlns="http://www.w3.org/2000/svg">
<path d="M59.625 29.375H3.375C1.5 29.375 0.25 30.625 0.25 32.5C0.25 34.375 1.5 35.625 3.375 35.625H59.625C61.5 35.625 62.75 34.375 62.75 32.5C62.75 30.625 61.5 29.375 59.625 29.375ZM47.125 41.875H15.875C14.9375 41.875 14.3125 42.1875 13.6875 42.8125C12.4375 44.0625 12.4375 45.9375 13.6875 47.1875L29.3125 62.8125C29.9375 63.4375 30.5625 63.75 31.5 63.75C32.4375 63.75 33.0625 63.4375 33.6875 62.8125L49.3125 47.1875C49.9375 46.5625 50.25 45.9375 50.25 45C50.25 43.125 49 41.875 47.125 41.875ZM42.125 20C42.125 21.875 43.375 23.125 45.25 23.125H47.125C48.0625 23.125 48.6875 22.8125 49.3125 22.1875C50.5625 20.9375 50.5625 19.0625 49.3125 17.8125L47.125 15.625C46.1875 14.6875 44.625 14.375 43.375 15C41.8125 15.625 41.1875 17.5 42.125 19.0625C42.125 19.6875 42.125 19.6875 42.125 20ZM30.25 10L31.5 8.75L34 11.25C34.625 11.875 35.25 12.1875 36.1875 12.1875C37.125 12.1875 37.75 11.875 38.375 11.25C39.625 10 39.625 8.125 38.375 6.875L34.9375 3.4375C34.625 3.125 34.3125 3.125 34 2.8125C34 2.5 33.6875 2.1875 33.375 1.875C32.125 0.625 30.25 0.625 29 1.875L25.5625 5.3125C24.3125 6.5625 24.3125 8.4375 25.5625 9.6875C26.8125 10.9375 29.3125 11.25 30.25 10ZM16.1875 23.125C17.125 23.125 17.75 22.8125 18.375 22.1875L21.8125 18.75C23.0625 17.5 23.0625 15.625 21.8125 14.375C20.5625 13.125 18.6875 13.125 17.4375 14.375L13.6875 17.5C13.375 18.125 13.0625 19.0625 13.0625 19.6875C13.0625 21.5625 14.3125 22.8125 16.1875 23.125ZM28.0625 23.125H32.75C34.625 23.125 35.875 21.875 35.875 20C35.875 18.125 34.625 16.875 32.75 16.875H28.0625C26.1875 16.875 24.9375 18.125 24.9375 20C24.9375 21.875 26.5 23.125 28.0625 23.125Z" fill="#F55757"/>
</svg>
