<svg width="69" height="69" viewBox="0 0 69 69" fill="none" xmlns="http://www.w3.org/2000/svg">
<path d="M67.625 3.56256C67.3125 2.62506 66.375 1.68756 65.4375 1.37506C52.3125 -2.06244 38.875 2.00006 29.8125 12.6251L26.375 16.6876L17.9375 14.8126C13.875 13.2501 9.5 15.1251 7.625 18.8751L0.75 31.0626C0.125 32.0001 0.125 32.9376 0.75 33.8751C1.0625 34.8126 2 35.4376 2.9375 35.7501L12.625 37.9376C11.6875 40.4376 11.375 42.9376 10.75 45.4376C10.75 46.3751 11.0625 47.3126 11.6875 47.9376L21.375 57.6251C22 58.2501 22.625 58.5626 23.5625 58.5626H23.875C26.6875 58.2501 29.1875 57.9376 31.6875 57.0001L33.5625 66.3751C33.875 67.3126 34.5 68.2501 35.4375 68.5626C35.75 68.8751 36.375 68.8751 36.6875 68.8751C37.3125 68.8751 37.625 68.8751 38.25 68.5626L50.4375 61.6876C53.875 59.8126 55.75 55.4376 54.8125 51.3751L52.625 42.6251L56.375 39.1876C66.6875 30.4376 71.0625 16.3751 67.625 3.56256ZM19.8125 24.5001C17.9375 27.0001 16.0625 29.5001 14.8125 32.0001L8.25 30.4376L12.9375 22.0001C13.5625 20.7501 14.8125 20.4376 16.375 20.7501L21.6875 22.0001L19.8125 24.5001ZM47 56.0626L38.5625 60.7501L37.3125 54.5001C40.125 53.2501 42.625 51.375 44.8125 49.5001L47 47.3126L48.25 52.625C48.875 54.1875 47.9375 55.7501 47 56.0626ZM49.1875 24.5001C46.6875 24.5001 44.5 22.3126 44.5 19.8126C44.5 17.3126 46.6875 15.1251 49.1875 15.1251C51.6875 15.1251 53.875 17.3126 53.875 19.8126C53.875 22.3126 52 24.5001 49.1875 24.5001Z" fill="#F55757"/>
</svg>
