<svg width="52" height="63" viewBox="0 0 52 63" fill="none" xmlns="http://www.w3.org/2000/svg">
<path d="M49.25 5.25C48.625 4.625 47.6875 4.3125 46.75 4.625C39.875 6.1875 33 4.625 27.375 0.5625C26.4375 -0.0625 24.875 -0.0625 23.9375 0.5625C18 4.625 11.125 6.1875 4.25 4.625C2.6875 4.3125 0.8125 5.5625 0.5 7.125C0.5 7.4375 0.5 7.4375 0.5 7.75V31.1875C0.5 40.25 4.875 48.6875 12.375 54L23.9375 62.125C24.875 62.75 26.4375 62.75 27.6875 62.125L39.25 54C46.75 48.6875 51.125 40.25 51.125 31.1875V7.75C50.5 6.8125 50.1875 5.875 49.25 5.25ZM31.75 34.625H28.625V37.75C28.625 39.625 27.375 40.875 25.5 40.875C23.625 40.875 22.375 39.625 22.375 37.75V34.625H19.25C17.375 34.625 16.125 33.375 16.125 31.5C16.125 29.625 17.375 28.375 19.25 28.375H22.375V25.25C22.375 23.375 23.625 22.125 25.5 22.125C27.375 22.125 28.625 23.375 28.625 25.25V28.375H31.75C33.625 28.375 34.875 29.625 34.875 31.5C34.875 33.375 33.625 34.625 31.75 34.625Z" fill="#F55757"/>
</svg>
